<?xml version="1.0" encoding="UTF-8"?>
<svg version="1.1" xmlns="http://www.w3.org/2000/svg" width="500" height="500">
<path d="M0 0 C3.75205106 1.55921327 6.92306148 3.374034 9.1953125 6.8046875 C10.86552585 11.36128898 10.51659487 16.23584735 10 21 C7.8897437 25.45498552 5.63198151 28.22604963 1 30 C-4.31769202 30.65861323 -8.57985232 30.69716341 -13.4375 28.3125 C-15.97350736 26.02390799 -18.0707088 23.81973329 -20 21 C-20 20.34 -20 19.68 -20 19 C-31.22 19 -42.44 19 -54 19 C-53.99476318 21.5999585 -53.98952637 24.19991699 -53.98413086 26.87866211 C-53.9675956 35.44817416 -53.95652904 44.0176869 -53.94818783 52.58721066 C-53.94295884 57.78528115 -53.9358609 62.98333536 -53.92456055 68.18139648 C-53.91373224 73.19342268 -53.90772329 78.20543318 -53.90512276 83.21747017 C-53.90326841 85.13412282 -53.8996476 87.05077457 -53.89426994 88.96742058 C-53.88706025 91.64228072 -53.88600903 94.31707514 -53.88647461 96.99194336 C-53.88287933 97.7925116 -53.87928406 98.59307983 -53.87557983 99.41790771 C-53.88594784 104.88594784 -53.88594784 104.88594784 -55 106 C-55.08775605 108.14558827 -55.10695219 110.29404421 -55.09765625 112.44140625 C-55.09443359 113.74658203 -55.09121094 115.05175781 -55.08789062 116.39648438 C-55.07953401 117.7851569 -55.07106905 119.17382877 -55.0625 120.5625 C-55.05748666 121.95507656 -55.05292347 123.34765481 -55.04882812 124.74023438 C-55.03699434 128.1601987 -55.0205088 131.58007844 -55 135 C-58.73872495 133.30343574 -60.6288741 131.38732271 -63 128 C-63 127.34 -63 126.68 -63 126 C-63.66 126 -64.32 126 -65 126 C-66.9453125 123.8828125 -66.9453125 123.8828125 -69.125 121.125 C-70.21167969 119.76761719 -70.21167969 119.76761719 -71.3203125 118.3828125 C-73 116 -73 116 -73 114 C-73.66 114 -74.32 114 -75 114 C-76.59375 112.234375 -76.59375 112.234375 -78.5 109.75 C-80.86941514 106.70112023 -83.25048264 103.67724251 -85.75 100.734375 C-86.20697266 100.19586914 -86.66394531 99.65736328 -87.13476562 99.10253906 C-88.45223251 97.55607042 -89.77293155 96.0123571 -91.09375 94.46875 C-93 92 -93 92 -93 90 C-93.66 90 -94.32 90 -95 90 C-99 85.52941176 -99 85.52941176 -99 83 C-99.66 83 -100.32 83 -101 83 C-104 79.53846154 -104 79.53846154 -104 77 C-104.66 77 -105.32 77 -106 77 C-107.515625 75.27734375 -107.515625 75.27734375 -109.25 72.9375 C-112.36047293 68.8162864 -115.60629865 64.89034058 -119 61 C-125.15589438 63.58518998 -130.95839128 69.42878474 -134.24609375 75.1796875 C-134.8816756 76.76699553 -135.4489844 78.38139168 -136 80 C-136.99 80.495 -136.99 80.495 -138 81 C-137.566875 81.40992188 -137.13375 81.81984375 -136.6875 82.2421875 C-136.130625 82.78101563 -135.57375 83.31984375 -135 83.875 C-134.443125 84.40867187 -133.88625 84.94234375 -133.3125 85.4921875 C-132 87 -132 87 -132 89 C-131.34 89 -130.68 89 -130 89 C-128 92 -128 92 -128 95 C-127.34 95 -126.68 95 -126 95 C-118.20979441 113.16723517 -116.50227157 130.58365974 -123.625 149.1875 C-124.40699391 151.12892419 -125.19521872 153.0679106 -126 155 C-126.66 155 -127.32 155 -128 155 C-128.99 157.97 -128.99 157.97 -130 161 C-130.66 161 -131.32 161 -132 161 C-132.40412109 161.88751953 -132.40412109 161.88751953 -132.81640625 162.79296875 C-138.09300382 172.63216884 -150.72779216 179.55962563 -161 183 C-168.61583066 185.07681422 -175.728949 185.27236382 -183.59790039 185.22705078 C-184.94896435 185.2264856 -186.30002892 185.22680531 -187.65109253 185.22793579 C-191.2930602 185.22850614 -194.93489429 185.2168038 -198.5768311 185.20278788 C-202.39247654 185.19022707 -206.20812553 185.18910582 -210.02378845 185.18673706 C-217.23775058 185.18053794 -224.45165159 185.16414849 -231.66558689 185.14403808 C-239.8832848 185.1216301 -248.10098574 185.11067336 -256.31870663 185.10064721 C-273.21250635 185.07978076 -290.1062467 185.04463548 -307 185 C-306.505 183.02 -306.505 183.02 -306 181 C-305.34 181 -304.68 181 -304 181 C-303.75204681 180.46720428 -303.50409363 179.93440857 -303.24862671 179.38546753 C-300.17076817 173.50530211 -296.93609081 168.24328364 -291 165 C-282.50724094 162.74868168 -273.35008907 163.51344978 -264.6484375 163.6796875 C-262.06255571 163.68471592 -259.47665755 163.68414799 -256.89077759 163.67825317 C-250.79512493 163.67659515 -244.70200627 163.72653086 -238.60690367 163.80347264 C-229.67542935 163.91355846 -220.74365042 163.93411966 -211.81159401 163.95489693 C-205.39924232 163.970603 -198.98801327 163.99967878 -192.57601929 164.07125854 C-191.39458847 164.08089127 -190.21315765 164.09052399 -188.9959259 164.10044861 C-186.80472181 164.118429 -184.61355968 164.14398266 -182.42256165 164.17900085 C-170.01683703 164.25713883 -158.83507738 161.26061147 -149.5234375 152.6484375 C-141.25843914 143.70528543 -138.25312983 132.61379972 -138.6171875 120.6484375 C-139.50797797 112.15865893 -142.84294416 105.60111851 -147.828125 98.77734375 C-149 97 -149 97 -149 95 C-149.57234375 94.73058594 -150.1446875 94.46117187 -150.734375 94.18359375 C-153.81893498 92.57217707 -156.56123718 90.55393479 -159.390625 88.53515625 C-166.85941756 84.14109117 -173.18987904 83.57915403 -181.69140625 83.62890625 C-183.95768386 83.61153162 -186.22395987 83.59394717 -188.49023438 83.57617188 C-192.03412759 83.56608933 -195.57791918 83.5625074 -199.12182617 83.56420898 C-202.56199 83.56063466 -206.00138041 83.5332859 -209.44140625 83.50390625 C-211.02291222 83.51618004 -211.02291222 83.51618004 -212.6363678 83.52870178 C-218.98382352 83.46466267 -222.8202693 82.74598893 -228 79 C-231.99618443 74.73740327 -232.26169205 70.70465494 -232.14453125 64.953125 C-231.88664032 61.46811237 -231.11994939 59.10430764 -228.6015625 56.62109375 C-223.60603264 52.34443282 -220.61672559 51.85631816 -214.24560547 51.88647461 C-213.44552063 51.88632858 -212.64543579 51.88618256 -211.82110596 51.8860321 C-209.16977247 51.8867302 -206.51850875 51.89451779 -203.8671875 51.90234375 C-202.03158608 51.9042083 -200.19598417 51.90563203 -198.36038208 51.90663147 C-193.52376945 51.91045377 -188.68718673 51.92028161 -183.85058594 51.93133545 C-178.91732183 51.94155574 -173.98405289 51.94613042 -169.05078125 51.95117188 C-159.36717434 51.96190412 -149.68358965 51.97897711 -140 52 C-140 51.34 -140 50.68 -140 50 C-139.34 50 -138.68 50 -138 50 C-138 49.34 -138 48.68 -138 48 C-137.34 48 -136.68 48 -136 48 C-136 47.34 -136 46.68 -136 46 C-135.34 46 -134.68 46 -134 46 C-134 45.34 -134 44.68 -134 44 C-132.625 42.375 -132.625 42.375 -131 41 C-130.34 41 -129.68 41 -129 41 C-129 40.34 -129 39.68 -129 39 C-128.34 39 -127.68 39 -127 39 C-127 38.34 -127 37.68 -127 37 C-126.34 37 -125.68 37 -125 37 C-125 36.34 -125 35.68 -125 35 C-124.34 35 -123.68 35 -123 35 C-123 34.34 -123 33.68 -123 33 C-122.34 33 -121.68 33 -121 33 C-121 32.34 -121 31.68 -121 31 C-119.25 29.3125 -119.25 29.3125 -117 28 C-113.37482016 28.41825557 -112.94157627 29.06836633 -110.40625 32.03515625 C-109.42688839 33.36988236 -108.45881041 34.71293505 -107.5 36.0625 C-106.44320441 37.51468405 -105.38589684 38.96649564 -104.328125 40.41796875 C-103.78478516 41.16997559 -103.24144531 41.92198242 -102.68164062 42.69677734 C-100.99745387 45.00348725 -99.27984898 47.28054608 -97.546875 49.55078125 C-96.99451172 50.27579834 -96.44214844 51.00081543 -95.87304688 51.74780273 C-94.80395172 53.14897994 -93.73239525 54.54828311 -92.65820312 55.94555664 C-89 60.77671718 -89 60.77671718 -89 63 C-88.34 63 -87.68 63 -87 63 C-83 68.41176471 -83 68.41176471 -83 71 C-82.34 71 -81.68 71 -81 71 C-78.69 74.3 -76.38 77.6 -74 81 C-73.67 57.57 -73.34 34.14 -73 10 C-55.18 10 -37.36 10 -19 10 C-18.34 8.35 -17.68 6.7 -17 5 C-12.54541381 -0.46699214 -6.64129624 -0.98426396 0 0 Z M-11 12 C-10.78755494 17.14948747 -10.78755494 17.14948747 -7.75 21.0625 C-5.02260842 22.26988804 -5.02260842 22.26988804 -2.25 21.3125 C0.12775858 20.20052397 0.12775858 20.20052397 1 18 C1.3892742 13.84874001 1.3892742 13.84874001 -0.1875 10.125 C-4.42144476 7.49703429 -7.52314438 8.90946167 -11 12 Z " fill="#EFF0F1" transform="translate(382,151)"/>
<path d="M0 0 C4.64208036 2.67812328 7.51728395 5.67685186 9.25 10.875 C9.70295208 17.66928114 8.77466824 22.50877569 4.5625 28.125 C-0.05419153 31.61871251 -4.55887855 33.23059014 -10.375 32.75 C-14.2440407 32.15321556 -17.36135711 30.87343042 -20.75 28.875 C-20.75 28.215 -20.75 27.555 -20.75 26.875 C-21.41 26.875 -22.07 26.875 -22.75 26.875 C-23.0965564 26.06203461 -23.44311279 25.24906921 -23.8001709 24.41146851 C-25.42328981 21.76052115 -25.42328981 21.76052115 -27.56001282 21.41093826 C-30.03432196 21.25000623 -32.46795843 21.24588099 -34.94726562 21.29150391 C-35.88898117 21.28916748 -36.83069672 21.28683105 -37.8009491 21.28442383 C-40.91994292 21.28280633 -44.03746538 21.31687408 -47.15625 21.3515625 C-49.31953396 21.35834974 -51.4828253 21.36307325 -53.64611816 21.36581421 C-58.18242796 21.37650237 -62.7182464 21.40322893 -67.25439453 21.44287109 C-73.07541086 21.49373899 -78.89614461 21.51887572 -84.71735382 21.53380775 C-90.25952528 21.54858853 -95.80163 21.57382396 -101.34375 21.6015625 C-102.93604179 21.60892866 -102.93604179 21.60892866 -104.5605011 21.61644363 C-107.55798625 21.63269494 -110.55532005 21.65610053 -113.55273438 21.68212891 C-114.44425705 21.68638885 -115.33577972 21.6906488 -116.25431824 21.69503784 C-117.07027969 21.70363831 -117.88624115 21.71223877 -118.72692871 21.72109985 C-119.78990299 21.7294583 -119.78990299 21.7294583 -120.8743515 21.73798561 C-122.9782894 21.81427917 -122.9782894 21.81427917 -125.75 22.875 C-125.75 23.535 -125.75 24.195 -125.75 24.875 C-126.41 24.875 -127.07 24.875 -127.75 24.875 C-127.75 25.535 -127.75 26.195 -127.75 26.875 C-128.41 26.875 -129.07 26.875 -129.75 26.875 C-129.75 27.535 -129.75 28.195 -129.75 28.875 C-130.41 28.875 -131.07 28.875 -131.75 28.875 C-131.75 29.535 -131.75 30.195 -131.75 30.875 C-133.46484375 32.53125 -133.46484375 32.53125 -135.6875 34.375 C-138.67045179 36.76426999 -138.67045179 36.76426999 -140.75 39.875 C-141.41 39.875 -142.07 39.875 -142.75 39.875 C-142.75 40.535 -142.75 41.195 -142.75 41.875 C-145.72 42.37 -145.72 42.37 -148.75 42.875 C-148.75 43.535 -148.75 44.195 -148.75 44.875 C-149.41 44.875 -150.07 44.875 -150.75 44.875 C-150.75 45.535 -150.75 46.195 -150.75 46.875 C-151.41 46.875 -152.07 46.875 -152.75 46.875 C-152.9871875 47.43703125 -153.224375 47.9990625 -153.46875 48.578125 C-155.03947697 51.39394042 -156.96471464 53.35455416 -159.25 55.625 C-160.0440625 56.42421875 -160.838125 57.2234375 -161.65625 58.046875 C-163.75 59.875 -163.75 59.875 -165.75 59.875 C-165.75 60.535 -165.75 61.195 -165.75 61.875 C-166.9135199 61.87420441 -168.07703979 61.87340881 -169.27581787 61.87258911 C-180.27996324 61.86897541 -191.2836433 61.89695081 -202.28763962 61.9552784 C-207.94398677 61.98426069 -213.59992172 62.00239359 -219.25634766 61.99511719 C-224.72261942 61.98849481 -230.18807875 62.01117451 -235.65418243 62.05355453 C-237.73196773 62.06463403 -239.80983592 62.06543287 -241.88762665 62.05542374 C-253.79682152 62.00544202 -262.51453618 62.28466304 -272.75 68.875 C-273.74 69.205 -274.73 69.535 -275.75 69.875 C-276.45394612 71.18903276 -277.11345658 72.5270257 -277.75 73.875 C-278.36875 74.57625 -278.9875 75.2775 -279.625 76 C-286.17234354 84.85817067 -286.78917888 94.23424127 -285.75 104.875 C-284.0692456 112.76404094 -279.519064 118.39314049 -273.75 123.875 C-272.76 124.37 -272.76 124.37 -271.75 124.875 C-271.75 125.535 -271.75 126.195 -271.75 126.875 C-270.33398286 127.35608275 -268.91715563 127.83478141 -267.5 128.3125 C-266.71109375 128.57933594 -265.9221875 128.84617188 -265.109375 129.12109375 C-261.31835776 130.33246184 -258.02683108 131.00094496 -254.0324707 131.03271484 C-253.10082596 131.04297699 -252.16918121 131.05323914 -251.20930481 131.06381226 C-249.70771065 131.07476425 -249.70771065 131.07476425 -248.17578125 131.0859375 C-246.04231016 131.11401534 -243.90884672 131.14267986 -241.77539062 131.171875 C-238.42261038 131.21304047 -235.06997163 131.24994111 -231.71704102 131.27636719 C-228.47382294 131.30412586 -225.23124799 131.35000534 -221.98828125 131.3984375 C-220.99733963 131.40169037 -220.00639801 131.40494324 -218.98542786 131.40829468 C-210.75913835 131.55214074 -202.71839861 132.73607571 -196.75 138.875 C-191.83121732 146.31153245 -190.98367763 152.01051422 -191.75 160.875 C-193.13010661 165.30227268 -195.22977871 168.82598943 -198.75 171.875 C-199.41 171.875 -200.07 171.875 -200.75 171.875 C-200.75 172.535 -200.75 173.195 -200.75 173.875 C-207.09813234 177.60221144 -211.72691153 178.44250969 -219.02148438 178.32910156 C-220.01751678 178.32968567 -221.01354919 178.33026978 -222.0397644 178.33087158 C-225.30812315 178.32810107 -228.57555201 178.29705726 -231.84375 178.265625 C-234.11917625 178.25815896 -236.39460895 178.25246774 -238.67004395 178.24847412 C-244.64109236 178.23324654 -250.61174779 178.19398911 -256.5826416 178.1496582 C-262.6826445 178.10864364 -268.78271128 178.09044988 -274.8828125 178.0703125 C-286.83871374 178.0274924 -298.79432411 177.95927565 -310.75 177.875 C-309.32268007 174.94653324 -307.88071088 172.36082937 -305.75 169.875 C-305.09 169.875 -304.43 169.875 -303.75 169.875 C-303.481875 169.2975 -303.21375 168.72 -302.9375 168.125 C-301.72070811 165.81949957 -300.44666121 163.85443808 -298.75 161.875 C-298.09 161.875 -297.43 161.875 -296.75 161.875 C-296.42 160.885 -296.09 159.895 -295.75 158.875 C-294.18145515 158.8595388 -294.18145515 158.8595388 -292.58122253 158.84376526 C-282.73699758 158.74610136 -272.89283682 158.64337391 -263.04871655 158.53566074 C-257.98749669 158.48044501 -252.92627104 158.4270271 -247.86499023 158.37768555 C-242.98258188 158.33002218 -238.10024428 158.27767855 -233.2179203 158.22205925 C-231.35318064 158.20164466 -229.48842157 158.18293009 -227.62364769 158.16592598 C-225.01619822 158.14186222 -222.40888255 158.11181025 -219.80151367 158.08032227 C-219.02683746 158.0745668 -218.25216125 158.06881134 -217.45401001 158.06288147 C-214.29484182 158.01938174 -211.76896679 157.88132226 -208.75 156.875 C-209.41 155.555 -210.07 154.235 -210.75 152.875 C-211.34389023 152.86691315 -211.93778046 152.85882629 -212.54966736 152.85049438 C-218.76354401 152.76404677 -224.9771163 152.66452841 -231.19067383 152.55761719 C-233.50572576 152.51947209 -235.82083403 152.48459468 -238.13598633 152.453125 C-241.47497619 152.40715913 -244.81358294 152.34921753 -248.15234375 152.2890625 C-249.17770737 152.27751129 -250.20307098 152.26596008 -251.25950623 152.25405884 C-266.38994698 151.9473917 -279.50483976 146.97578024 -290.5 136.32421875 C-304.05869713 121.56501197 -306.55934798 108.04488959 -305.94238281 88.65722656 C-305.3920681 80.69861423 -302.35265383 73.90482022 -298.75 66.875 C-298.09 66.875 -297.43 66.875 -296.75 66.875 C-296.37875 65.77478516 -296.37875 65.77478516 -296 64.65234375 C-292.24224364 56.30307884 -283.61318184 50.9434501 -275.75 46.875 C-274.9971875 46.48441406 -274.244375 46.09382813 -273.46875 45.69140625 C-264.81225537 41.53080232 -256.06665479 40.57152049 -246.56201172 40.68310547 C-245.11606125 40.68731255 -245.11606125 40.68731255 -243.64089966 40.69160461 C-241.56646005 40.69805871 -239.4920298 40.70859583 -237.41762924 40.72286606 C-234.1296214 40.74248625 -230.84204599 40.74451552 -227.5539856 40.74099731 C-218.21205544 40.73134807 -208.87055746 40.7310587 -199.52880859 40.79589844 C-193.79812801 40.83439805 -188.06857072 40.83399854 -182.3378334 40.80832291 C-180.16178281 40.80591338 -177.98566493 40.81793729 -175.80978012 40.84490585 C-164.37670363 41.41536243 -164.37670363 41.41536243 -153.74029541 38.15704346 C-151.74015842 36.16540279 -150.30294792 34.21825502 -148.75 31.875 C-147.4089129 30.64933013 -146.03632928 29.45658518 -144.625 28.3125 C-142.07112404 26.12204109 -139.83102793 23.90520221 -137.6875 21.3125 C-130.26008374 12.46958399 -130.26008374 12.46958399 -125.47026253 11.33498001 C-122.79531308 11.13859691 -120.18174964 11.13217705 -117.50024414 11.19384766 C-116.49460419 11.1929715 -115.48896423 11.19209534 -114.45285034 11.19119263 C-111.14614776 11.19535539 -107.84150214 11.24194784 -104.53515625 11.2890625 C-102.23588672 11.30025924 -99.93660283 11.30879716 -97.63731384 11.31478882 C-91.59862439 11.3376491 -85.56080692 11.39654977 -79.52246094 11.4630127 C-73.35558873 11.52449474 -67.18857502 11.55181658 -61.02148438 11.58203125 C-48.9306074 11.64629444 -36.84037634 11.74864122 -24.75 11.875 C-24.55277344 10.71871094 -24.55277344 10.71871094 -24.3515625 9.5390625 C-23.55888748 6.02864455 -22.29225423 4.41725423 -19.75 1.875 C-13.09837951 -1.90729401 -7.19311237 -2.15793371 0 0 Z M-14.1875 9.4375 C-16.38021887 12.85814143 -16.38007693 14.88451279 -15.75 18.875 C-13.46408345 21.94465937 -11.99497671 23.56375582 -8.25 24.5 C-4.58953634 23.58488409 -3.07791027 21.78488784 -0.75 18.875 C0.31205232 15.97205698 0.50108121 14.6073202 -0.5 11.6875 C-1.78583873 9.58386156 -1.78583873 9.58386156 -4.75 7.875 C-8.62338754 7.45244863 -10.86598609 7.30832442 -14.1875 9.4375 Z " fill="#EFF0F1" transform="translate(415.75,121.125)"/>
<path d="M0 0 C6.6 0 13.2 0 20 0 C21 1 21 1 21.12304783 3.48127079 C21.12212604 4.59387492 21.12120424 5.70647905 21.12025452 6.85279846 C21.12231651 8.76066635 21.12231651 8.76066635 21.12442017 10.70707703 C21.12088055 12.12966942 21.11724573 13.55226158 21.11352539 14.97485352 C21.11324353 16.46266681 21.11340124 17.95048024 21.1139679 19.43829346 C21.1142559 23.48977 21.10835867 27.5412172 21.10139394 31.59268689 C21.09516092 35.82211997 21.09455664 40.05155364 21.09336853 44.2809906 C21.09025506 52.29559722 21.08204146 60.31019027 21.07201904 68.32479089 C21.06085839 77.44676684 21.05534758 86.56874342 21.05032361 95.69072449 C21.03985886 114.4604907 21.02225912 133.23024426 21 152 C13.56211627 152.15230572 6.12463551 152.25728144 -1.31445312 152.32958984 C-3.84422839 152.35973709 -6.37389935 152.40066232 -8.90332031 152.45263672 C-12.5425796 152.52553626 -16.18045555 152.55947871 -19.8203125 152.5859375 C-20.94865509 152.61690521 -22.07699768 152.64787292 -23.23953247 152.67977905 C-32.01471771 152.68352846 -32.01471771 152.68352846 -35.76123047 149.08837891 C-38 146 -38 146 -38 144 C-38.66 144 -39.32 144 -40 144 C-41.53851766 142.28048026 -43.00731759 140.49812503 -44.4375 138.6875 C-47.45235569 134.83532998 -47.45235569 134.83532998 -50.78515625 131.26953125 C-52 130 -52 130 -52 128 C-52.66 128 -53.32 128 -54 128 C-58 123.52941176 -58 123.52941176 -58 121 C-58.66 121 -59.32 121 -60 121 C-60 120.34 -60 119.68 -60 119 C-60.66 119 -61.32 119 -62 119 C-63.60634015 117.26608049 -65.1375287 115.461909 -66.625 113.625 C-67.44226563 112.62726563 -68.25953125 111.62953125 -69.1015625 110.6015625 C-71 108 -71 108 -71 106 C-71.66 106 -72.32 106 -73 106 C-74.58070528 104.23947136 -76.09166286 102.41580202 -77.5625 100.5625 C-78.36816406 99.55316406 -79.17382812 98.54382813 -80.00390625 97.50390625 C-80.66261719 96.67761719 -81.32132812 95.85132813 -82 95 C-82.33 94.67 -82.66 94.34 -83 94 C-83.24961579 92.5343265 -83.44369606 91.05910529 -83.61328125 89.58203125 C-83.72510742 88.66333252 -83.83693359 87.74463379 -83.95214844 86.7980957 C-84.07106445 85.81284912 -84.18998047 84.82760254 -84.3125 83.8125 C-85.32783149 75.75444824 -86.75282642 68.29859619 -89.328125 60.58203125 C-90 58 -90 58 -89 55 C-86.03595495 57.80804268 -83.55500981 60.18315774 -82 64 C-81.34 64 -80.68 64 -80 64 C-76 68.47058824 -76 68.47058824 -76 71 C-75.34 71 -74.68 71 -74 71 C-72.73071202 72.42720409 -71.53461407 73.91983776 -70.375 75.4375 C-66.92407912 79.88071865 -63.29592155 84.06593064 -59.46875 88.1875 C-58 90 -58 90 -58 92 C-57.34 92 -56.68 92 -56 92 C-52 96.47058824 -52 96.47058824 -52 99 C-51.34 99 -50.68 99 -50 99 C-48.39365985 100.73391951 -46.8624713 102.538091 -45.375 104.375 C-44.55773437 105.37273437 -43.74046875 106.37046875 -42.8984375 107.3984375 C-41 110 -41 110 -41 112 C-40.34 112 -39.68 112 -39 112 C-35 116.47058824 -35 116.47058824 -35 119 C-34.34 119 -33.68 119 -33 119 C-31.41929472 120.76052864 -29.90833714 122.58419798 -28.4375 124.4375 C-27.63183594 125.44683594 -26.82617188 126.45617187 -25.99609375 127.49609375 C-25.33738281 128.32238281 -24.67867188 129.14867187 -24 130 C-18.32353788 135.67646212 -8.02015281 131.6512977 0 132 C0 88.44 0 44.88 0 0 Z " fill="#ECEDED" transform="translate(347,184)"/>
<path d="M0 0 C3.75205106 1.55921327 6.92306148 3.374034 9.1953125 6.8046875 C10.86552585 11.36128898 10.51659487 16.23584735 10 21 C7.8897437 25.45498552 5.63198151 28.22604963 1 30 C-4.31769202 30.65861323 -8.57985232 30.69716341 -13.4375 28.3125 C-15.97350736 26.02390799 -18.0707088 23.81973329 -20 21 C-20 20.34 -20 19.68 -20 19 C-31.22 19 -42.44 19 -54 19 C-54 47.38 -54 75.76 -54 105 C-55.485 105.495 -55.485 105.495 -57 106 C-57 105.34 -57 104.68 -57 104 C-57.66 104 -58.32 104 -59 104 C-60.02846655 102.35074734 -61.02093066 100.67904765 -62 99 C-62.80955184 97.91141972 -63.63759429 96.83642567 -64.48046875 95.7734375 C-64.92197266 95.2165625 -65.36347656 94.6596875 -65.81835938 94.0859375 C-66.73950963 92.9348282 -67.66405646 91.78642958 -68.59179688 90.640625 C-72 86.32390234 -72 86.32390234 -72 83 C-72.66 82.67 -73.32 82.34 -74 82 C-73.67 58.24 -73.34 34.48 -73 10 C-55.18 10 -37.36 10 -19 10 C-18.34 8.35 -17.68 6.7 -17 5 C-12.54541381 -0.46699214 -6.64129624 -0.98426396 0 0 Z M-11 12 C-10.78755494 17.14948747 -10.78755494 17.14948747 -7.75 21.0625 C-5.02260842 22.26988804 -5.02260842 22.26988804 -2.25 21.3125 C0.12775858 20.20052397 0.12775858 20.20052397 1 18 C1.3892742 13.84874001 1.3892742 13.84874001 -0.1875 10.125 C-4.42144476 7.49703429 -7.52314438 8.90946167 -11 12 Z " fill="#26A0F4" transform="translate(382,151)"/>
<path d="M0 0 C4.64208036 2.67812328 7.51728395 5.67685186 9.25 10.875 C9.70295208 17.66928114 8.77466824 22.50877569 4.5625 28.125 C-0.05419153 31.61871251 -4.55887855 33.23059014 -10.375 32.75 C-14.2440407 32.15321556 -17.36135711 30.87343042 -20.75 28.875 C-20.75 28.215 -20.75 27.555 -20.75 26.875 C-21.41 26.875 -22.07 26.875 -22.75 26.875 C-23.26983459 25.65555191 -23.26983459 25.65555191 -23.8001709 24.41146851 C-25.42328981 21.76052115 -25.42328981 21.76052115 -27.56001282 21.41093826 C-30.03432196 21.25000623 -32.46795843 21.24588099 -34.94726562 21.29150391 C-35.88898117 21.28916748 -36.83069672 21.28683105 -37.8009491 21.28442383 C-40.91994292 21.28280633 -44.03746538 21.31687408 -47.15625 21.3515625 C-49.31953396 21.35834974 -51.4828253 21.36307325 -53.64611816 21.36581421 C-58.18242796 21.37650237 -62.7182464 21.40322893 -67.25439453 21.44287109 C-73.07541086 21.49373899 -78.89614461 21.51887572 -84.71735382 21.53380775 C-90.25952528 21.54858853 -95.80163 21.57382396 -101.34375 21.6015625 C-102.93604179 21.60892866 -102.93604179 21.60892866 -104.5605011 21.61644363 C-107.55798625 21.63269494 -110.55532005 21.65610053 -113.55273438 21.68212891 C-114.44425705 21.68638885 -115.33577972 21.6906488 -116.25431824 21.69503784 C-117.07027969 21.70363831 -117.88624115 21.71223877 -118.72692871 21.72109985 C-119.78990299 21.7294583 -119.78990299 21.7294583 -120.8743515 21.73798561 C-122.9782894 21.81427917 -122.9782894 21.81427917 -125.75 22.875 C-125.75 23.535 -125.75 24.195 -125.75 24.875 C-126.41 24.875 -127.07 24.875 -127.75 24.875 C-127.75 25.535 -127.75 26.195 -127.75 26.875 C-128.41 26.875 -129.07 26.875 -129.75 26.875 C-129.75 27.535 -129.75 28.195 -129.75 28.875 C-130.41 28.875 -131.07 28.875 -131.75 28.875 C-131.75 29.535 -131.75 30.195 -131.75 30.875 C-133.46484375 32.53125 -133.46484375 32.53125 -135.6875 34.375 C-138.67045179 36.76426999 -138.67045179 36.76426999 -140.75 39.875 C-141.41 39.875 -142.07 39.875 -142.75 39.875 C-142.75 40.535 -142.75 41.195 -142.75 41.875 C-148.30950345 43.06081694 -153.69464877 42.97074623 -159.34521484 42.89672852 C-160.39947662 42.88712097 -161.4537384 42.87751343 -162.53994751 42.86761475 C-166.01368076 42.83471703 -169.4872846 42.79434954 -172.9609375 42.75390625 C-175.37374418 42.72959612 -177.78655561 42.70575301 -180.19937134 42.68235779 C-186.5418642 42.61960576 -192.88427274 42.55051394 -199.22668457 42.48010254 C-205.70186532 42.40933886 -212.17710573 42.34456999 -218.65234375 42.27929688 C-231.35162774 42.15039901 -244.05083388 42.01500722 -256.75 41.875 C-256.75 41.545 -256.75 41.215 -256.75 40.875 C-255.51495728 40.88023682 -254.27991455 40.88547363 -253.00744629 40.89086914 C-241.35454283 40.93506142 -229.70228572 40.93717475 -218.04935455 40.89834595 C-212.05868478 40.87972986 -206.06876447 40.87581465 -200.078125 40.90576172 C-194.29405137 40.9341309 -188.51122824 40.92353658 -182.72721863 40.88619995 C-180.52329261 40.87876722 -178.31927328 40.8852515 -176.11543274 40.90603638 C-173.02152145 40.93281178 -169.931642 40.90960154 -166.83789062 40.875 C-165.93157898 40.89441147 -165.02526733 40.91382294 -164.0914917 40.93382263 C-158.77443916 40.81274068 -156.17781493 39.83885887 -152.37731934 36.03515625 C-151.16807536 34.64855743 -149.95896656 33.2618407 -148.75 31.875 C-147.39531405 30.66437734 -146.02264663 29.47326059 -144.625 28.3125 C-142.07112404 26.12204109 -139.83102793 23.90520221 -137.6875 21.3125 C-130.26008374 12.46958399 -130.26008374 12.46958399 -125.47026253 11.33498001 C-122.79531308 11.13859691 -120.18174964 11.13217705 -117.50024414 11.19384766 C-116.49460419 11.1929715 -115.48896423 11.19209534 -114.45285034 11.19119263 C-111.14614776 11.19535539 -107.84150214 11.24194784 -104.53515625 11.2890625 C-102.23588672 11.30025924 -99.93660283 11.30879716 -97.63731384 11.31478882 C-91.59862439 11.3376491 -85.56080692 11.39654977 -79.52246094 11.4630127 C-73.35558873 11.52449474 -67.18857502 11.55181658 -61.02148438 11.58203125 C-48.9306074 11.64629444 -36.84037634 11.74864122 -24.75 11.875 C-24.61851562 11.10414063 -24.48703125 10.33328125 -24.3515625 9.5390625 C-23.55888748 6.02864455 -22.29225423 4.41725423 -19.75 1.875 C-13.09837951 -1.90729401 -7.19311237 -2.15793371 0 0 Z M-14.1875 9.4375 C-16.38021887 12.85814143 -16.38007693 14.88451279 -15.75 18.875 C-13.46408345 21.94465937 -11.99497671 23.56375582 -8.25 24.5 C-4.58953634 23.58488409 -3.07791027 21.78488784 -0.75 18.875 C0.31205232 15.97205698 0.50108121 14.6073202 -0.5 11.6875 C-1.78583873 9.58386156 -1.78583873 9.58386156 -4.75 7.875 C-8.62338754 7.45244863 -10.86598609 7.30832442 -14.1875 9.4375 Z " fill="#2FAAF3" transform="translate(415.75,121.125)"/>
<path d="M0 0 C1.875 0.125 1.875 0.125 4 1 C6.15909651 5.42614784 6.78648034 10.14067504 6 15 C4.55925314 18.47274362 2.67029712 21.32970288 0 24 C0.99 24.99 0.99 24.99 2 26 C-31.66 26 -65.32 26 -100 26 C-98.47246003 22.94492007 -97.19136095 20.55658777 -95 18 C-94.34 18 -93.68 18 -93 18 C-92.5978125 17.13375 -92.5978125 17.13375 -92.1875 16.25 C-90.97070811 13.94449957 -89.69666121 11.97943808 -88 10 C-87.34 10 -86.68 10 -86 10 C-85.67 9.01 -85.34 8.02 -85 7 C-83.95430344 6.98969254 -82.90860687 6.97938507 -81.83122253 6.96876526 C-71.98699758 6.87110136 -62.14283682 6.76837391 -52.29871655 6.66066074 C-47.23749669 6.60544501 -42.17627104 6.5520271 -37.11499023 6.50268555 C-32.23258188 6.45502218 -27.35024428 6.40267855 -22.4679203 6.34705925 C-20.60318064 6.32664466 -18.73842157 6.30793009 -16.87364769 6.29092598 C-14.26619822 6.26686222 -11.65888255 6.23681025 -9.05151367 6.20532227 C-8.27683746 6.1995668 -7.50216125 6.19381134 -6.70401001 6.18788147 C-3.54484182 6.14438174 -1.01896679 6.00632226 2 5 C1.01 2.525 1.01 2.525 0 0 Z " fill="#26A0F5" transform="translate(205,273)"/>
<path d="M0 0 C0.99588638 -0.00087616 1.99177277 -0.00175232 3.01783752 -0.00265503 C6.29208271 0.00150735 9.56424987 0.0480977 12.83813477 0.09521484 C15.11498394 0.10641173 17.39184761 0.11494958 19.66871643 0.12094116 C25.6482262 0.14380032 31.6268552 0.20269996 37.60601807 0.26916504 C43.71256599 0.33064955 49.81925685 0.35796944 55.92602539 0.38818359 C67.89841661 0.45244479 79.87015544 0.55479016 91.84204102 0.68115234 C91.84204102 1.34115234 91.84204102 2.00115234 91.84204102 2.68115234 C60.16204102 3.01115234 28.48204102 3.34115234 -4.15795898 3.68115234 C-4.15795898 5.00115234 -4.15795898 6.32115234 -4.15795898 7.68115234 C-5.47795898 7.68115234 -6.79795898 7.68115234 -8.15795898 7.68115234 C-8.15795898 8.34115234 -8.15795898 9.00115234 -8.15795898 9.68115234 C-7.16795898 10.67115234 -7.16795898 10.67115234 -6.15795898 11.68115234 C-6.81795898 11.68115234 -7.47795898 11.68115234 -8.15795898 11.68115234 C-8.15795898 12.34115234 -8.15795898 13.00115234 -8.15795898 13.68115234 C-8.81795898 13.68115234 -9.47795898 13.68115234 -10.15795898 13.68115234 C-10.15795898 14.34115234 -10.15795898 15.00115234 -10.15795898 15.68115234 C-10.81795898 15.68115234 -11.47795898 15.68115234 -12.15795898 15.68115234 C-12.15795898 16.34115234 -12.15795898 17.00115234 -12.15795898 17.68115234 C-12.81795898 17.68115234 -13.47795898 17.68115234 -14.15795898 17.68115234 C-14.15795898 18.34115234 -14.15795898 19.00115234 -14.15795898 19.68115234 C-15.87280273 21.33740234 -15.87280273 21.33740234 -18.09545898 23.18115234 C-21.07841077 25.57042233 -21.07841077 25.57042233 -23.15795898 28.68115234 C-23.81795898 28.68115234 -24.47795898 28.68115234 -25.15795898 28.68115234 C-25.15795898 29.34115234 -25.15795898 30.00115234 -25.15795898 30.68115234 C-30.71746244 31.86696928 -36.10260775 31.77689858 -41.75317383 31.70288086 C-42.80743561 31.69327332 -43.86169739 31.68366577 -44.94790649 31.67376709 C-48.42163974 31.64086938 -51.89524358 31.60050188 -55.36889648 31.56005859 C-57.78170317 31.53574847 -60.1945146 31.51190536 -62.60733032 31.48851013 C-68.94982318 31.4257581 -75.29223172 31.35666629 -81.63464355 31.28625488 C-88.10982431 31.2154912 -94.58506472 31.15072233 -101.06030273 31.08544922 C-113.75958673 30.95655135 -126.45879286 30.82115956 -139.15795898 30.68115234 C-139.15795898 30.35115234 -139.15795898 30.02115234 -139.15795898 29.68115234 C-137.92291626 29.68638916 -136.68787354 29.69162598 -135.41540527 29.69702148 C-123.76250181 29.74121377 -112.1102447 29.7433271 -100.45731354 29.70449829 C-94.46664376 29.6858822 -88.47672345 29.681967 -82.48608398 29.71191406 C-76.70201035 29.74028324 -70.91918722 29.72968893 -65.13517761 29.69235229 C-62.9312516 29.68491956 -60.72723226 29.69140385 -58.52339172 29.71218872 C-55.42948043 29.73896413 -52.33960098 29.71575389 -49.24584961 29.68115234 C-48.33953796 29.70056381 -47.43322632 29.71997528 -46.49945068 29.73997498 C-41.18239814 29.61889302 -38.58577391 28.64501122 -34.78527832 24.84130859 C-33.57603434 23.45470977 -32.36692555 22.06799305 -31.15795898 20.68115234 C-29.80327303 19.47052969 -28.43060561 18.27941294 -27.03295898 17.11865234 C-24.47908302 14.92819343 -22.23898691 12.71135456 -20.09545898 10.11865234 C-13.87668162 2.71277728 -9.89454036 -0.22985105 0 0 Z " fill="#426076" transform="translate(298.157958984375,132.31884765625)"/>
<path d="M0 0 C4.64208036 2.67812328 7.51728395 5.67685186 9.25 10.875 C9.70295208 17.66928114 8.77466824 22.50877569 4.5625 28.125 C-0.05419153 31.61871251 -4.55887855 33.23059014 -10.375 32.75 C-14.2440407 32.15321556 -17.36135711 30.87343042 -20.75 28.875 C-20.75 28.215 -20.75 27.555 -20.75 26.875 C-21.41 26.875 -22.07 26.875 -22.75 26.875 C-23.74 24.895 -24.73 22.915 -25.75 20.875 C-22.48045798 21.43871414 -20.92424117 22.37462266 -18.75 24.875 C-18.75 24.215 -18.75 23.555 -18.75 22.875 C-18.42 22.545 -18.09 22.215 -17.75 21.875 C-18.41 21.215 -19.07 20.555 -19.75 19.875 C-18.76 16.905 -17.77 13.935 -16.75 10.875 C-16.09 10.875 -15.43 10.875 -14.75 10.875 C-14.79125 10.09125 -14.8325 9.3075 -14.875 8.5 C-14.75 5.875 -14.75 5.875 -12.75 3.875 C-15.06 4.205 -17.37 4.535 -19.75 4.875 C-20.08 6.195 -20.41 7.515 -20.75 8.875 C-21.41 8.875 -22.07 8.875 -22.75 8.875 C-23.08 9.865 -23.41 10.855 -23.75 11.875 C-24.5625 10.25 -24.5625 10.25 -24.75 7.875 C-18.86061919 -1.14311436 -9.95559757 -2.98667927 0 0 Z M-14.1875 9.4375 C-16.38021887 12.85814143 -16.38007693 14.88451279 -15.75 18.875 C-13.46408345 21.94465937 -11.99497671 23.56375582 -8.25 24.5 C-4.58953634 23.58488409 -3.07791027 21.78488784 -0.75 18.875 C0.31205232 15.97205698 0.50108121 14.6073202 -0.5 11.6875 C-1.78583873 9.58386156 -1.78583873 9.58386156 -4.75 7.875 C-8.62338754 7.45244863 -10.86598609 7.30832442 -14.1875 9.4375 Z " fill="#2E96D5" transform="translate(415.75,121.125)"/>
<path d="M0 0 C3.75205106 1.55921327 6.92306148 3.374034 9.1953125 6.8046875 C10.86552585 11.36128898 10.51659487 16.23584735 10 21 C7.8897437 25.45498552 5.63198151 28.22604963 1 30 C-4.42822334 30.67230289 -8.63627846 30.69382324 -13.5625 28.1875 C-16 26 -16 26 -18 23 C-16.68 23.33 -15.36 23.66 -14 24 C-14 24.66 -14 25.32 -14 26 C-12.02 25.34 -10.04 24.68 -8 24 C-8 23.01 -8 22.02 -8 21 C-4.04 20.505 -4.04 20.505 0 20 C0.04125 18.72125 0.0825 17.4425 0.125 16.125 C0.14820313 15.40570313 0.17140625 14.68640625 0.1953125 13.9453125 C0.18331689 11.76136355 0.18331689 11.76136355 -2 10 C-6.65624995 10.41015778 -6.65624995 10.41015778 -11 12 C-11 10.02 -11 8.04 -11 6 C-11.763125 6.474375 -12.52625 6.94875 -13.3125 7.4375 C-16 9 -16 9 -19 10 C-17.50602086 5.74790553 -16.11654239 3.23694036 -12.1953125 0.9453125 C-8.20711712 -0.7720243 -4.24761676 -0.62951206 0 0 Z " fill="#35A7ED" transform="translate(382,151)"/>
<path d="M0 0 C33.66 0 67.32 0 102 0 C102 0.66 102 1.32 102 2 C70.32 2.33 38.64 2.66 6 3 C6 4.32 6 5.64 6 7 C4.68 7 3.36 7 2 7 C2 7.66 2 8.32 2 9 C2.66 9.66 3.32 10.32 4 11 C3.34 11 2.68 11 2 11 C2 11.66 2 12.32 2 13 C1.34 13 0.68 13 0 13 C0 13.66 0 14.32 0 15 C-0.99 15 -1.98 15 -3 15 C-3.33 13.68 -3.66 12.36 -4 11 C-4.66 12.32 -5.32 13.64 -6 15 C-6.99 14.01 -7.98 13.02 -9 12 C-8.21625 11.443125 -7.4325 10.88625 -6.625 10.3125 C-3.91295142 7.92331435 -3.03866457 6.39926587 -2 3 C-1.34 3 -0.68 3 0 3 C0 2.01 0 1.02 0 0 Z " fill="#3084B6" transform="translate(288,133)"/>
<path d="M0 0 C1.875 0.125 1.875 0.125 4 1 C6.15909651 5.42614784 6.78648034 10.14067504 6 15 C4.55925314 18.47274362 2.67029712 21.32970288 0 24 C0.99 24.99 0.99 24.99 2 26 C-31.66 26 -65.32 26 -100 26 C-98.47246003 22.94492007 -97.19136095 20.55658777 -95 18 C-94.34 18 -93.68 18 -93 18 C-92.67 17.01 -92.34 16.02 -92 15 C-91.67 15.66 -91.34 16.32 -91 17 C-91.66 18.98 -92.32 20.96 -93 23 C-62.97 23.33 -32.94 23.66 -2 24 C-1.67 22.68 -1.34 21.36 -1 20 C-0.01 20 0.98 20 2 20 C2 18.68 2 17.36 2 16 C2.66 16 3.32 16 4 16 C4 13.03 4 10.06 4 7 C2.35 7 0.7 7 -1 7 C-0.67 6.34 -0.34 5.68 0 5 C0.66 5 1.32 5 2 5 C1.01 2.525 1.01 2.525 0 0 Z " fill="#3284BE" transform="translate(205,273)"/>
<path d="M0 0 C13.53 0 27.06 0 41 0 C41 1.65 41 3.3 41 5 C41.99 5.33 42.98 5.66 44 6 C28.16 6.495 28.16 6.495 12 7 C12 7.66 12 8.32 12 9 C11.34 9 10.68 9 10 9 C10 8.01 10 7.02 10 6 C9.34 5.67 8.68 5.34 8 5 C8 4.34 8 3.68 8 3 C7.34 3 6.68 3 6 3 C6 3.66 6 4.32 6 5 C5.34 5 4.68 5 4 5 C4 4.34 4 3.68 4 3 C3.01 3.495 3.01 3.495 2 4 C1.67 11.26 1.34 18.52 1 26 C0.67 26 0.34 26 0 26 C0 17.42 0 8.84 0 0 Z " fill="#27AAF8" transform="translate(311,163)"/>
<path d="M0 0 C1.19009674 0.00212242 1.19009674 0.00212242 2.40423584 0.00428772 C4.93098772 0.0098721 7.45765004 0.02242171 9.984375 0.03515625 C11.70051955 0.04017327 13.41666549 0.04473582 15.1328125 0.04882812 C19.33336769 0.05983641 23.53385617 0.07709029 27.734375 0.09765625 C28.229375 2.57265625 28.229375 2.57265625 28.734375 5.09765625 C28.074375 3.77765625 27.414375 2.45765625 26.734375 1.09765625 C15.514375 1.09765625 4.294375 1.09765625 -7.265625 1.09765625 C-7.22613505 11.73281388 -7.22613505 11.73281388 -7.17553711 22.36791992 C-7.17261438 23.7088208 -7.17006666 25.04972258 -7.16796875 26.390625 C-7.16285278 27.07757446 -7.15773682 27.76452393 -7.15246582 28.47229004 C-7.15180292 32.14410552 -7.39188602 35.52711737 -8.265625 39.09765625 C-8.595625 39.09765625 -8.925625 39.09765625 -9.265625 39.09765625 C-10.19650409 35.16477261 -10.38171385 31.52111462 -10.36328125 27.484375 C-10.36005859 26.23720703 -10.35683594 24.99003906 -10.35351562 23.70507812 C-10.34094727 21.7647168 -10.34094727 21.7647168 -10.328125 19.78515625 C-10.32361328 18.47224609 -10.31910156 17.15933594 -10.31445312 15.80664062 C-10.30268449 12.57026615 -10.2862426 9.33398447 -10.265625 6.09765625 C-11.585625 5.43765625 -12.905625 4.77765625 -14.265625 4.09765625 C-12.265625 1.09765625 -12.265625 1.09765625 -10.37554932 0.41725159 C-6.92915544 -0.10478203 -3.4764885 -0.02339971 0 0 Z " fill="#2A94CD" transform="translate(335.265625,168.90234375)"/>
<path d="M0 0 C4.75 0.875 4.75 0.875 7 2 C8.30765478 5.92296433 8.1971417 8.86002433 8 13 C7.34 13.66 6.68 14.32 6 15 C5.3574765 17.06874034 5.3574765 17.06874034 5 19 C4.34 19 3.68 19 3 19 C2.67 19.99 2.34 20.98 2 22 C-1.63 22.33 -5.26 22.66 -9 23 C-8.34 21.68 -7.68 20.36 -7 19 C-5.67405895 18.63837971 -4.34061543 18.30271961 -3 18 C-2.67 17.01 -2.34 16.02 -2 15 C0.0625 14.3125 0.0625 14.3125 2 14 C1.85866501 12.22880197 1.71176792 10.45804713 1.5625 8.6875 C1.48128906 7.70136719 1.40007812 6.71523437 1.31640625 5.69921875 C1.08187441 2.90624401 1.08187441 2.90624401 0 0 Z " fill="#31A9F7" transform="translate(383,157)"/>
<path d="M0 0 C17.82 0 35.64 0 54 0 C54 0.33 54 0.66 54 1 C36.84 1.33 19.68 1.66 2 2 C1.67 25.43 1.34 48.86 1 73 C0.34 72.67 -0.32 72.34 -1 72 C-0.67 48.24 -0.34 24.48 0 0 Z " fill="#3484B1" transform="translate(309,161)"/>
<path d="M0 0 C0.33 0 0.66 0 1 0 C1.95788619 9.96439215 2.12238132 19.81683927 2.0625 29.8125 C2.05746824 31.29492034 2.05290834 32.77734236 2.04882812 34.25976562 C2.0379707 37.8398795 2.02080135 41.41992843 2 45 C0.515 45.495 0.515 45.495 -1 46 C-1 45.34 -1 44.68 -1 44 C-1.66 44 -2.32 44 -3 44 C-4.04349839 42.36021682 -5.03182008 40.68535024 -6 39 C-7.62968704 36.63841758 -9.31485878 34.32276222 -11 32 C-10.34 31.67 -9.68 31.34 -9 31 C-9 31.66 -9 32.32 -9 33 C-8.34 33 -7.68 33 -7 33 C-6.67 34.32 -6.34 35.64 -6 37 C-4.515 36.505 -4.515 36.505 -3 36 C-1.55451382 27.13349101 -0.78470663 18.62020867 -0.98632812 9.63696289 C-1.05373092 6.26000265 -1.0757201 3.2271603 0 0 Z " fill="#2788CF" transform="translate(326,211)"/>
<path d="M0 0 C2.5794262 0.00503477 5.15885336 0.00959411 7.73828125 0.01367188 C13.9505427 0.02449854 20.16276651 0.04107381 26.375 0.0625 C26.375 0.3925 26.375 0.7225 26.375 1.0625 C17.50207389 3.49408569 8.74775606 3.23273334 -0.3515625 3.0390625 C-1.95151279 3.01284398 -3.551479 2.98758125 -5.15145874 2.96322632 C-9.33055016 2.89707809 -13.50930019 2.81808084 -17.68811035 2.73626709 C-21.96511896 2.65485169 -26.24232576 2.58578136 -30.51953125 2.515625 C-38.88826136 2.37656161 -47.25667104 2.22390282 -55.625 2.0625 C-55.625 1.7325 -55.625 1.4025 -55.625 1.0625 C-37.07373065 0.18357221 -18.56999605 -0.06428542 0 0 Z " fill="#45ACE8" transform="translate(176.625,279.9375)"/>
<path d="M0 0 C-0.61875 0.721875 -1.2375 1.44375 -1.875 2.1875 C-4.09322387 4.83698446 -4.09322387 4.83698446 -5 7.75 C-5.33 8.4925 -5.66 9.235 -6 10 C-8.125 10.8125 -8.125 10.8125 -10 11 C-10.226875 10.38125 -10.45375 9.7625 -10.6875 9.125 C-12.42240381 6.31610811 -13.90640051 6.05463619 -17 5 C-22.85 2.3 -22.85 2.3 -24 0 C-20.75052139 -0.19738568 -17.50041127 -0.3811754 -14.25 -0.5625 C-13.32960937 -0.61857422 -12.40921875 -0.67464844 -11.4609375 -0.73242188 C-10.57148438 -0.78076172 -9.68203125 -0.82910156 -8.765625 -0.87890625 C-7.94868164 -0.9260376 -7.13173828 -0.97316895 -6.29003906 -1.02172852 C-4.02117925 -1.00020095 -2.16679079 -0.64612135 0 0 Z " fill="#3088C5" transform="translate(252,221)"/>
<path d="M0 0 C3.91025991 0.57929776 6.16056336 2.3061755 9 5 C12.06547854 9.65107089 12.65497537 13.58840023 12 19 C11 22.5 11 22.5 10 25 C9.31292445 22.50935112 9 20.62113708 9 18 C8.34 18 7.68 18 7 18 C7 17.01 7 16.02 7 15 C6.34 14.67 5.68 14.34 5 14 C4.67 14.99 4.34 15.98 4 17 C2 14 2 14 1.5625 11.875 C1.376875 11.25625 1.19125 10.6375 1 10 C0.01 9.67 -0.98 9.34 -2 9 C0 8 0 8 2.9375 8.9375 C3.948125 9.288125 4.95875 9.63875 6 10 C6.99 10 7.98 10 9 10 C9 9.34 9 8.68 9 8 C8.01 8 7.02 8 6 8 C6 7.01 6 6.02 6 5 C4.35 5 2.7 5 1 5 C2 3 2 3 3 2 C2.01 2 1.02 2 0 2 C0 1.34 0 0.68 0 0 Z " fill="#2F9FE0" transform="translate(413,121)"/>
<path d="M0 0 C1.65 0.66 3.3 1.32 5 2 C5.33 4.97 5.66 7.94 6 11 C4.02 11.99 4.02 11.99 2 13 C0.75259525 13.80577698 -0.47749252 14.63908361 -1.6875 15.5 C-2.59048828 16.13421875 -2.59048828 16.13421875 -3.51171875 16.78125 C-5.14495714 17.94936034 -5.14495714 17.94936034 -6 20 C-2.37 19.67 1.26 19.34 5 19 C2.43599223 21.56400777 1.31217985 21.32633634 -2.25 21.375 C-7.28369502 21.28923586 -10.15941041 20.44668297 -14 17 C-14.66 16.01 -15.32 15.02 -16 14 C-14.68 14.33 -13.36 14.66 -12 15 C-12 15.66 -12 16.32 -12 17 C-10.02 16.34 -8.04 15.68 -6 15 C-6 14.01 -6 13.02 -6 12 C-3.36 11.67 -0.72 11.34 2 11 C2.04125 9.741875 2.0825 8.48375 2.125 7.1875 C2.14820313 6.47980469 2.17140625 5.77210938 2.1953125 5.04296875 C2.13254462 2.68640281 2.13254462 2.68640281 0 0 Z " fill="#338AC3" transform="translate(380,160)"/>
<path d="M0 0 C0.99 0.33 1.98 0.66 3 1 C3 1.33 3 1.66 3 2 C3.66 2 4.32 2 5 2 C4.67 5.3 4.34 8.6 4 12 C-1.71271093 14.0662997 -6.03654233 14.0006709 -12 13 C-12 12.67 -12 12.34 -12 12 C-10.948125 11.87625 -9.89625 11.7525 -8.8125 11.625 C-5.9148673 10.84758635 -5.12129435 10.18134105 -3.421875 7.640625 C-2.18460148 5.12341335 -1.04237517 2.60353614 0 0 Z " fill="#34AAF2" transform="translate(418,135)"/>
<path d="M0 0 C0.66 0 1.32 0 2 0 C2 0.99 2 1.98 2 3 C1.34 3 0.68 3 0 3 C0 3.99 0 4.98 0 6 C-0.66 6 -1.32 6 -2 6 C-2 6.99 -2 7.98 -2 9 C-2.99 9 -3.98 9 -5 9 C-5 9.99 -5 10.98 -5 12 C-7.64 12 -10.28 12 -13 12 C-13 11.01 -13 10.02 -13 9 C-12.34 8.67 -11.68 8.34 -11 8 C-10.690625 7.195625 -10.38125 6.39125 -10.0625 5.5625 C-9 3 -9 3 -6 1 C-4.33380554 0.9603287 -2.66608987 0.95615553 -1 1 C-0.67 0.67 -0.34 0.34 0 0 Z " fill="#26A0EF" transform="translate(276,150)"/>
<path d="M0 0 C2.97 0 5.94 0 9 0 C9 0.66 9 1.32 9 2 C9.99 2 10.98 2 12 2 C11 4 11 4 10 5 C11.65 5 13.3 5 15 5 C15 5.99 15 6.98 15 8 C15.99 8 16.98 8 18 8 C18 8.66 18 9.32 18 10 C17.01 10 16.02 10 15 10 C14.67 10.66 14.34 11.32 14 12 C14 11.34 14 10.68 14 10 C12.948125 9.8453125 12.948125 9.8453125 11.875 9.6875 C8.60862353 8.90640997 5.9528148 7.57941257 3 6 C3 5.34 3 4.68 3 4 C2.0206121 2.97980427 1.02104551 1.97850195 0 1 C0 0.67 0 0.34 0 0 Z " fill="#33ABF6" transform="translate(404,121)"/>
<path d="M0 0 C2.93394345 1.3537649 5.45866888 3.01236673 8 5 C5.0955111 5 3.79782099 4.63854948 1.1875 3.5625 C-2.19064617 2.23871629 -5.38394317 1.4520071 -9 1 C-9.33 3.31 -9.66 5.62 -10 8 C-7.36 8 -4.72 8 -2 8 C-2 8.33 -2 8.66 -2 9 C-3.670625 9.4640625 -3.670625 9.4640625 -5.375 9.9375 C-8.7945155 10.82326483 -8.7945155 10.82326483 -11 12 C-11 10.02 -11 8.04 -11 6 C-11.763125 6.474375 -12.52625 6.94875 -13.3125 7.4375 C-16 9 -16 9 -19 10 C-17.50602086 5.74790553 -16.11654239 3.23694036 -12.1953125 0.9453125 C-8.21591834 -0.76823445 -4.23737282 -0.65141702 0 0 Z " fill="#2D8FC7" transform="translate(382,151)"/>
<path d="M0 0 C0.33 0 0.66 0 1 0 C1.33 20.46 1.66 40.92 2 62 C2.66 62.33 3.32 62.66 4 63 C4.625 66.0625 4.625 66.0625 5 69 C0.17779582 64.89625244 0.17779582 64.89625244 -0.60127258 60.96903992 C-0.59016953 59.84318985 -0.57906647 58.71733978 -0.56762695 57.55737305 C-0.5672493 56.27642258 -0.56687164 54.99547211 -0.56648254 53.67570496 C-0.54095309 52.28769956 -0.51487318 50.8997042 -0.48828125 49.51171875 C-0.47894881 48.08398173 -0.47183473 46.65622864 -0.46684265 45.22846985 C-0.44780601 41.48142832 -0.39873633 37.73536507 -0.34332275 33.9887085 C-0.29205685 30.16122673 -0.2693131 26.33358595 -0.24414062 22.50585938 C-0.19061232 15.00346159 -0.10534252 7.50186818 0 0 Z " fill="#329FE5" transform="translate(310,173)"/>
<path d="M0 0 C0.99 0 1.98 0 3 0 C3.07347656 1.12148437 3.07347656 1.12148437 3.1484375 2.265625 C3.22320312 3.25046875 3.29796875 4.2353125 3.375 5.25 C3.44460938 6.22453125 3.51421875 7.1990625 3.5859375 8.203125 C3.98465249 10.89633189 4.63507063 12.66963279 6 15 C3.61435923 14.42415568 1.33317216 13.77772405 -1 13 C-2.17673198 10.64653604 -2.16623866 9.1193967 -2.1875 6.5 C-2.20167969 5.7059375 -2.21585937 4.911875 -2.23046875 4.09375 C-2 2 -2 2 0 0 Z " fill="#22A8FC" transform="translate(368,157)"/>
<path d="M0 0 C8.91 0 17.82 0 27 0 C27 0.33 27 0.66 27 1 C18.42 1 9.84 1 1 1 C1 2.65 1 4.3 1 6 C0.01 6.33 -0.98 6.66 -2 7 C-3.20882096 9.00016466 -3.20882096 9.00016466 -4 11 C-4.66 9.68 -5.32 8.36 -6 7 C-4.625 5 -4.625 5 -3 3 C-2.34 3 -1.68 3 -1 3 C-0.67 2.01 -0.34 1.02 0 0 Z " fill="#1E73A2" transform="translate(120,280)"/>
<path d="M0 0 C1.65 0 3.3 0 5 0 C4.43545368 1.48643845 3.84765111 2.96406016 3.25 4.4375 C2.92515625 5.26121094 2.6003125 6.08492187 2.265625 6.93359375 C1 9 1 9 -1.140625 9.78515625 C-1.75421875 9.85605469 -2.3678125 9.92695313 -3 10 C-3.3403125 9.071875 -3.3403125 9.071875 -3.6875 8.125 C-5.37929835 5.38589791 -6.99244161 4.94975528 -10 4 C-10 3.34 -10 2.68 -10 2 C-7.07120629 2.62759865 -4.63904371 3.58622659 -2 5 C-1.34 3.35 -0.68 1.7 0 0 Z " fill="#284F73" transform="translate(245,222)"/>
<path d="M0 0 C2.21399303 3.79541663 3.00980198 7.75629421 4 12 C5.32 12.33 6.64 12.66 8 13 C7.67 14.65 7.34 16.3 7 18 C6.34 18 5.68 18 5 18 C4.67 16.68 4.34 15.36 4 14 C3.34 14 2.68 14 2 14 C2 13.34 2 12.68 2 12 C1.34 12 0.68 12 0 12 C-0.12375 11.030625 -0.2475 10.06125 -0.375 9.0625 C-0.58125 8.051875 -0.7875 7.04125 -1 6 C-1.66 5.67 -2.32 5.34 -3 5 C-2.01 3.35 -1.02 1.7 0 0 Z " fill="#2192EC" transform="translate(315,230)"/>
<path d="M0 0 C0.33 1.32 0.66 2.64 1 4 C2.65 3.34 4.3 2.68 6 2 C6.33 2.99 6.66 3.98 7 5 C6.34 5 5.68 5 5 5 C5 5.66 5 6.32 5 7 C-1.4 10.07692308 -1.4 10.07692308 -4.4375 9.6875 C-4.953125 9.460625 -5.46875 9.23375 -6 9 C-4.73046875 7.53515625 -3.4609375 6.0703125 -2.19140625 4.60546875 C-0.79128769 2.89287029 -0.79128769 2.89287029 0 0 Z " fill="#C9DEE8" transform="translate(210,288)"/>
<path d="M0 0 C1.875 0.125 1.875 0.125 4 1 C6.18190981 5.4729151 6.67020923 10.10455868 6 15 C4.5 18.5 4.5 18.5 3 21 C2.67 21 2.34 21 2 21 C2 19.35 2 17.7 2 16 C2.66 16 3.32 16 4 16 C4 13.03 4 10.06 4 7 C2.35 7 0.7 7 -1 7 C-0.67 6.34 -0.34 5.68 0 5 C0.66 5 1.32 5 2 5 C1.34 3.35 0.68 1.7 0 0 Z " fill="#4993CC" transform="translate(205,273)"/>
<path d="M0 0 C2.475 0.99 2.475 0.99 5 2 C5.33 4.97 5.66 7.94 6 11 C2.37251204 12.81374398 -0.02205103 13.65409139 -4 14 C-4.66 13.34 -5.32 12.68 -6 12 C-3.36 11.67 -0.72 11.34 2 11 C2.04125 9.741875 2.0825 8.48375 2.125 7.1875 C2.15980469 6.12595703 2.15980469 6.12595703 2.1953125 5.04296875 C2.13254462 2.68640281 2.13254462 2.68640281 0 0 Z " fill="#2A83B6" transform="translate(380,160)"/>
<path d="M0 0 C1.98 0 3.96 0 6 0 C7.0625 1.875 7.0625 1.875 8 4 C7.67 4.66 7.34 5.32 7 6 C4.35139573 6.59355614 1.70802678 6.74209269 -1 7 C-0.67 4.69 -0.34 2.38 0 0 Z " fill="#2EA8F6" transform="translate(373,152)"/>
<path d="M0 0 C2.31 0 4.62 0 7 0 C6.01 0.495 6.01 0.495 5 1 C5 2.32 5 3.64 5 5 C3.68 5 2.36 5 1 5 C1 5.66 1 6.32 1 7 C1.66 7.66 2.32 8.32 3 9 C2.34 9 1.68 9 1 9 C1 9.66 1 10.32 1 11 C0.34 11 -0.32 11 -1 11 C-1 11.66 -1 12.32 -1 13 C-1.66 12.67 -2.32 12.34 -3 12 C-2.14285714 3.42857143 -2.14285714 3.42857143 0 0 Z " fill="#25A5F6" transform="translate(289,135)"/>
<path d="M0 0 C0.33 0.99 0.66 1.98 1 3 C0.01 3.33 -0.98 3.66 -2 4 C-2 4.99 -2 5.98 -2 7 C0.64 7 3.28 7 6 7 C6 6.01 6 5.02 6 4 C7.32 4.33 8.64 4.66 10 5 C9.01 5.495 9.01 5.495 8 6 C8 6.66 8 7.32 8 8 C2.97703996 9.13016601 -0.97874074 8.77916092 -6 8 C-4.55746343 4.63408134 -2.66735273 2.48952921 0 0 Z " fill="#3582B1" transform="translate(265,155)"/>
<path d="M0 0 C1.58461772 4.75385316 -0.41527227 8.35146532 -2 13 C-2.66 11.68 -3.32 10.36 -4 9 C-4.66 10.32 -5.32 11.64 -6 13 C-6.99 12.01 -7.98 11.02 -9 10 C-8.21625 9.443125 -7.4325 8.88625 -6.625 8.3125 C-3.87896913 5.89337756 -3.18418704 4.37037849 -2 1 C-1.34 0.67 -0.68 0.34 0 0 Z " fill="#2AA5F3" transform="translate(288,135)"/>
<path d="M0 0 C1 2 1 2 0.0625 5.125 C-0.288125 6.07375 -0.63875 7.0225 -1 8 C2.96 8.33 6.92 8.66 11 9 C11 9.33 11 9.66 11 10 C5.39 10 -0.22 10 -6 10 C-5.01 7.69 -4.02 5.38 -3 3 C-2.34 3 -1.68 3 -1 3 C-0.67 2.01 -0.34 1.02 0 0 Z " fill="#33A0DE" transform="translate(113,288)"/>
<path d="M0 0 C8.91 0 17.82 0 27 0 C27 0.99 27 1.98 27 3 C26.34 3 25.68 3 25 3 C25 3.66 25 4.32 25 5 C24.34 4.67 23.68 4.34 23 4 C23 3.34 23 2.68 23 2 C11.615 1.505 11.615 1.505 0 1 C0 0.67 0 0.34 0 0 Z " fill="#D0E3EA" transform="translate(240,163)"/>
<path d="M0 0 C-1 1 -1 1 -4.81640625 1.09765625 C-6.39846682 1.09098089 -7.98051159 1.07901875 -9.5625 1.0625 C-10.36880859 1.05798828 -11.17511719 1.05347656 -12.00585938 1.04882812 C-14.00393756 1.03700518 -16.00197783 1.01906914 -18 1 C-18.33 1.99 -18.66 2.98 -19 4 C-20.68496298 3.03114628 -22.35178756 2.03013277 -24 1 C-24 0.67 -24 0.34 -24 0 C-20.75052139 -0.19738568 -17.50041127 -0.3811754 -14.25 -0.5625 C-13.32960937 -0.61857422 -12.40921875 -0.67464844 -11.4609375 -0.73242188 C-10.57148438 -0.78076172 -9.68203125 -0.82910156 -8.765625 -0.87890625 C-7.94868164 -0.9260376 -7.13173828 -0.97316895 -6.29003906 -1.02172852 C-4.02117925 -1.00020095 -2.16679079 -0.64612135 0 0 Z " fill="#7C9FB2" transform="translate(252,221)"/>
<path d="M0 0 C2.65499376 2.65499376 2.32897553 4.04963297 2.375 7.75 C2.2904856 13.15892181 1.78668423 16.10512479 -2 20 C-2.99 20 -3.98 20 -5 20 C-4.67 19.34 -4.34 18.68 -4 18 C-3.34 18 -2.68 18 -2 18 C-1.855625 17.195625 -1.71125 16.39125 -1.5625 15.5625 C-1 13 -1 13 0 12 C0.07244053 9.98035801 0.08377188 7.95832876 0.0625 5.9375 C0.05347656 4.83277344 0.04445313 3.72804687 0.03515625 2.58984375 C0.02355469 1.73519531 0.01195312 0.88054687 0 0 Z " fill="#2877A8" transform="translate(390,158)"/>
<path d="M0 0 C0.66 0.33 1.32 0.66 2 1 C1.9175 2.051875 1.835 3.10375 1.75 4.1875 C2.03525487 8.53763669 3.02449969 9.9315153 6 13 C4.35 12.67 2.7 12.34 1 12 C1 11.34 1 10.68 1 10 C0.01 10.33 -0.98 10.66 -2 11 C-3 9 -3 9 -2.44140625 6.8359375 C-2.15136719 6.02382812 -1.86132812 5.21171875 -1.5625 4.375 C-1.27503906 3.55773437 -0.98757813 2.74046875 -0.69140625 1.8984375 C-0.46324219 1.27195313 -0.23507812 0.64546875 0 0 Z " fill="#277FB3" transform="translate(399,132)"/>
<path d="M0 0 C3.87915244 0.57468925 6.14756605 2.37884447 9 5 C9.33 5.99 9.66 6.98 10 8 C8.68 8 7.36 8 6 8 C6 7.01 6 6.02 6 5 C4.35 5 2.7 5 1 5 C2 3 2 3 3 2 C2.01 2 1.02 2 0 2 C0 1.34 0 0.68 0 0 Z " fill="#2D87BA" transform="translate(413,121)"/>
<path d="M0 0 C0.66 0.33 1.32 0.66 2 1 C1.84518205 3.70931419 1.51827919 5.46584039 -0.40234375 7.4453125 C-1.89771708 8.67679642 -3.4462924 9.8429837 -5 11 C-5 9.68 -5 8.36 -5 7 C-4.34 7 -3.68 7 -3 7 C-3 6.01 -3 5.02 -3 4 C-2.34 4 -1.68 4 -1 4 C-0.67 2.68 -0.34 1.36 0 0 Z " fill="#2E93D5" transform="translate(279,149)"/>
<path d="M0 0 C7.51827663 -0.69328371 12.02597761 0.32758025 18 5 C15 5 15 5 11.3125 3.5 C7.03057202 1.80788375 3.57279806 1.75502868 -1 2 C-0.67 1.34 -0.34 0.68 0 0 Z " fill="#2C739F" transform="translate(372,151)"/>
<path d="M0 0 C1.9375 0.3125 1.9375 0.3125 4 1 C4.33 1.99 4.66 2.98 5 4 C4.01 4.33 3.02 4.66 2 5 C1.67 5.99 1.34 6.98 1 8 C-0.32 7.67 -1.64 7.34 -3 7 C-2.01 4.69 -1.02 2.38 0 0 Z " fill="#2396EF" transform="translate(202,289)"/>
<path d="M0 0 C2.48421811 3.72632716 2.42240263 6.68661935 2 11 C1 14.5 1 14.5 0 17 C-1.23104155 13.31599416 -0.90767252 10.08525024 -0.5625 6.25 C-0.46066406 5.07953125 -0.35882813 3.9090625 -0.25390625 2.703125 C-0.17011719 1.81109375 -0.08632813 0.9190625 0 0 Z " fill="#297BAD" transform="translate(423,129)"/>
<path d="M0 0 C0.33 0.66 0.66 1.32 1 2 C0.34 2 -0.32 2 -1 2 C-1.0825 2.763125 -1.165 3.52625 -1.25 4.3125 C-2 7 -2 7 -3.875 8.875 C-4.57625 9.24625 -5.2775 9.6175 -6 10 C-6.99 9.67 -7.98 9.34 -9 9 C-6 6 -3 3 0 0 Z " fill="#277CAC" transform="translate(287,134)"/>
<path d="M0 0 C0.33 0 0.66 0 1 0 C1.309375 1.11375 1.61875 2.2275 1.9375 3.375 C2.82326483 6.7945155 2.82326483 6.7945155 4 9 C1.61435923 8.42415568 -0.66682784 7.77772405 -3 7 C-3.6875 4.9375 -3.6875 4.9375 -4 3 C-3.01 2.67 -2.02 2.34 -1 2 C-0.67 1.34 -0.34 0.68 0 0 Z " fill="#2886C3" transform="translate(370,163)"/>
<path d="M0 0 C1.24546405 2.49092811 0.7767578 3.41080733 0 6 C-1.98 6 -3.96 6 -6 6 C-4.95125002 3.37812506 -4.35068687 2.20628639 -1.875 0.75 C-1.25625 0.5025 -0.6375 0.255 0 0 Z " fill="#30ACF9" transform="translate(380,174)"/>
<path d="M0 0 C0.66 0.33 1.32 0.66 2 1 C2 1.99 2 2.98 2 4 C-0.52053595 5.26026798 -1.8542098 4.91874445 -4.625 4.5625 C-5.85089844 4.40974609 -5.85089844 4.40974609 -7.1015625 4.25390625 C-8.04128906 4.12822266 -8.04128906 4.12822266 -9 4 C-9 3.67 -9 3.34 -9 3 C-7.88625 2.690625 -6.7725 2.38125 -5.625 2.0625 C-2.2054845 1.17673517 -2.2054845 1.17673517 0 0 Z " fill="#2BAAFB" transform="translate(415,144)"/>
<path d="M0 0 C0.66 0.33 1.32 0.66 2 1 C1.01 2.98 0.02 4.96 -1 7 C-1.66 7 -2.32 7 -3 7 C-3.33 7.99 -3.66 8.98 -4 10 C-4.8125 8.375 -4.8125 8.375 -5 6 C-3.53181864 3.75390165 -1.84147142 1.97621323 0 0 Z " fill="#3288BA" transform="translate(396,123)"/>
<path d="M0 0 C0.66 0 1.32 0 2 0 C3.28571429 8.42857143 3.28571429 8.42857143 2 13 C1.67 13 1.34 13 1 13 C-0.10228696 8.59085217 -0.07654536 4.51617599 0 0 Z " fill="#2B82D0" transform="translate(325,195)"/>
<path d="M0 0 C3.73639216 1.24546405 4.18756513 2.63404953 6 6 C5.01 6 4.02 6 3 6 C2.67 6.99 2.34 7.98 2 9 C1.34 6.03 0.68 3.06 0 0 Z " fill="#9BA0A7" transform="translate(257,239)"/>
<path d="M0 0 C0 0.99 0 1.98 0 3 C0.33 3.33 0.66 3.66 1 4 C1 4.66 1 5.32 1 6 C-0.98 6.99 -0.98 6.99 -3 8 C-3.99 7.34 -4.98 6.68 -6 6 C-4.02 4.02 -2.04 2.04 0 0 Z " fill="#2C8ECA" transform="translate(277,144)"/>
<path d="M0 0 C1.60031344 3.20062687 0.03173691 5.72271806 -1 9 C-1.66 9 -2.32 9 -3 9 C-3 8.34 -3 7.68 -3 7 C-3.66 6.67 -4.32 6.34 -5 6 C-4.34 5.01 -3.68 4.02 -3 3 C-2.34 3 -1.68 3 -1 3 C-0.67 2.01 -0.34 1.02 0 0 Z " fill="#217AB1" transform="translate(113,288)"/>
<path d="M0 0 C0.66 0.99 1.32 1.98 2 3 C1.34 3 0.68 3 0 3 C0 3.66 0 4.32 0 5 C-1.32 5.33 -2.64 5.66 -4 6 C-4.33 4.68 -4.66 3.36 -5 2 C-3.35 1.34 -1.7 0.68 0 0 Z " fill="#C6CCCD" transform="translate(215,290)"/>
<path d="M0 0 C0.33 0.66 0.66 1.32 1 2 C0.0625 4.625 0.0625 4.625 -2 7 C-4.79513791 7.45668592 -7.14221385 7.23424477 -10 7 C-10 6.67 -10 6.34 -10 6 C-8.63875 5.62875 -8.63875 5.62875 -7.25 5.25 C-3.89648511 3.96018658 -2.32291764 2.68028958 0 0 Z " fill="#2E81B0" transform="translate(415,139)"/>
<path d="M0 0 C0.99 0 1.98 0 3 0 C2.67 3.96 2.34 7.92 2 12 C1.67 12 1.34 12 1 12 C0.67 8.04 0.34 4.08 0 0 Z " fill="#31A4F2" transform="translate(368,157)"/>
<path d="M0 0 C0 3 0 3 -2.5 5.6875 C-3.325 6.450625 -4.15 7.21375 -5 8 C-5.99 7.34 -6.98 6.68 -8 6 C-5.36 4.02 -2.72 2.04 0 0 Z " fill="#A5AAAE" transform="translate(232,304)"/>
<path d="M0 0 C2.475 0.495 2.475 0.495 5 1 C5 1.99 5 2.98 5 4 C4.01 4.33 3.02 4.66 2 5 C2 4.34 2 3.68 2 3 C1.34 3 0.68 3 0 3 C0 2.01 0 1.02 0 0 Z " fill="#457FAB" transform="translate(323,252)"/>
<path d="M0 0 C-0.33 1.65 -0.66 3.3 -1 5 C-1.99 5 -2.98 5 -4 5 C-4.33 4.01 -4.66 3.02 -5 2 C-2 0 -2 0 0 0 Z " fill="#1A6EB1" transform="translate(245,222)"/>
<path d="M0 0 C0.33 0.66 0.66 1.32 1 2 C3.64 2 6.28 2 9 2 C9 2.33 9 2.66 9 3 C7.88625 3.309375 6.7725 3.61875 5.625 3.9375 C2.2054845 4.82326483 2.2054845 4.82326483 0 6 C0 4.02 0 2.04 0 0 Z " fill="#2275AA" transform="translate(371,157)"/>
<path d="M0 0 C0.33 0.99 0.66 1.98 1 3 C0.01 3.33 -0.98 3.66 -2 4 C-2 4.99 -2 5.98 -2 7 C-3.32 6.67 -4.64 6.34 -6 6 C-4.02 4.02 -2.04 2.04 0 0 Z " fill="#206997" transform="translate(265,155)"/>
<path d="M0 0 C0.66 0.33 1.32 0.66 2 1 C2.625 4.0625 2.625 4.0625 3 7 C2.34 7 1.68 7 1 7 C1 7.66 1 8.32 1 9 C0.34 8.67 -0.32 8.34 -1 8 C-0.67 5.36 -0.34 2.72 0 0 Z " fill="#2680BA" transform="translate(283,143)"/>
<path d="M0 0 C1.65 0 3.3 0 5 0 C4.25 1.9375 4.25 1.9375 3 4 C0.875 4.75 0.875 4.75 -1 5 C-0.67 3.35 -0.34 1.7 0 0 Z " fill="#1E5081" transform="translate(245,222)"/>
<path d="M0 0 C1.65 0.33 3.3 0.66 5 1 C4.01 1.495 4.01 1.495 3 2 C3 2.66 3 3.32 3 4 C2.34 4 1.68 4 1 4 C1 4.66 1 5.32 1 6 C0.34 5.67 -0.32 5.34 -1 5 C-0.67 3.35 -0.34 1.7 0 0 Z " fill="#237AB7" transform="translate(287,142)"/>
</svg>
